<svg aria-roledescription="er" role="graphics-document document" viewBox="0 0 580.9379272460938 540" style="max-width: 580.938px; background-color: rgb(255, 255, 255);" xmlns:xlink="http://www.w3.org/1999/xlink" xmlns="http://www.w3.org/2000/svg" width="100%" id="mermaid-1761671374732"><style>#mermaid-1761671374732{font-family:"trebuchet ms",verdana,arial,sans-serif;font-size:16px;fill:#333;}#mermaid-1761671374732 .error-icon{fill:#552222;}#mermaid-1761671374732 .error-text{fill:#552222;stroke:#552222;}#mermaid-1761671374732 .edge-thickness-normal{stroke-width:2px;}#mermaid-1761671374732 .edge-thickness-thick{stroke-width:3.5px;}#mermaid-1761671374732 .edge-pattern-solid{stroke-dasharray:0;}#mermaid-1761671374732 .edge-pattern-dashed{stroke-dasharray:3;}#mermaid-1761671374732 .edge-pattern-dotted{stroke-dasharray:2;}#mermaid-1761671374732 .marker{fill:#333333;stroke:#333333;}#mermaid-1761671374732 .marker.cross{stroke:#333333;}#mermaid-1761671374732 svg{font-family:"trebuchet ms",verdana,arial,sans-serif;font-size:16px;}#mermaid-1761671374732 .entityBox{fill:#ECECFF;stroke:#9370DB;}#mermaid-1761671374732 .attributeBoxOdd{fill:#ffffff;stroke:#9370DB;}#mermaid-1761671374732 .attributeBoxEven{fill:#f2f2f2;stroke:#9370DB;}#mermaid-1761671374732 .relationshipLabelBox{fill:hsl(80, 100%, 96.2745098039%);opacity:0.7;background-color:hsl(80, 100%, 96.2745098039%);}#mermaid-1761671374732 .relationshipLabelBox rect{opacity:0.5;}#mermaid-1761671374732 .relationshipLine{stroke:#333333;}#mermaid-1761671374732 .entityTitleText{text-anchor:middle;font-size:18px;fill:#333;}#mermaid-1761671374732 #MD_PARENT_START{fill:#f5f5f5!important;stroke:#333333!important;stroke-width:1;}#mermaid-1761671374732 #MD_PARENT_END{fill:#f5f5f5!important;stroke:#333333!important;stroke-width:1;}#mermaid-1761671374732 :root{--mermaid-font-family:"trebuchet ms",verdana,arial,sans-serif;}</style><g/><defs><marker orient="auto" markerHeight="240" markerWidth="190" refY="7" refX="0" id="MD_PARENT_START"><path d="M 18,7 L9,13 L1,7 L9,1 Z"/></marker></defs><defs><marker orient="auto" markerHeight="28" markerWidth="20" refY="7" refX="19" id="MD_PARENT_END"><path d="M 18,7 L9,13 L1,7 L9,1 Z"/></marker></defs><defs><marker orient="auto" markerHeight="18" markerWidth="18" refY="9" refX="0" id="ONLY_ONE_START"><path d="M9,0 L9,18 M15,0 L15,18" fill="none" stroke="gray"/></marker></defs><defs><marker orient="auto" markerHeight="18" markerWidth="18" refY="9" refX="18" id="ONLY_ONE_END"><path d="M3,0 L3,18 M9,0 L9,18" fill="none" stroke="gray"/></marker></defs><defs><marker orient="auto" markerHeight="18" markerWidth="30" refY="9" refX="0" id="ZERO_OR_ONE_START"><circle r="6" cy="9" cx="21" fill="white" stroke="gray"/><path d="M9,0 L9,18" fill="none" stroke="gray"/></marker></defs><defs><marker orient="auto" markerHeight="18" markerWidth="30" refY="9" refX="30" id="ZERO_OR_ONE_END"><circle r="6" cy="9" cx="9" fill="white" stroke="gray"/><path d="M21,0 L21,18" fill="none" stroke="gray"/></marker></defs><defs><marker orient="auto" markerHeight="36" markerWidth="45" refY="18" refX="18" id="ONE_OR_MORE_START"><path d="M0,18 Q 18,0 36,18 Q 18,36 0,18 M42,9 L42,27" fill="none" stroke="gray"/></marker></defs><defs><marker orient="auto" markerHeight="36" markerWidth="45" refY="18" refX="27" id="ONE_OR_MORE_END"><path d="M3,9 L3,27 M9,18 Q27,0 45,18 Q27,36 9,18" fill="none" stroke="gray"/></marker></defs><defs><marker orient="auto" markerHeight="36" markerWidth="57" refY="18" refX="18" id="ZERO_OR_MORE_START"><circle r="6" cy="18" cx="48" fill="white" stroke="gray"/><path d="M0,18 Q18,0 36,18 Q18,36 0,18" fill="none" stroke="gray"/></marker></defs><defs><marker orient="auto" markerHeight="36" markerWidth="57" refY="18" refX="39" id="ZERO_OR_MORE_END"><circle r="6" cy="18" cx="9" fill="white" stroke="gray"/><path d="M21,18 Q39,0 57,18 Q39,36 21,18" fill="none" stroke="gray"/></marker></defs><path style="stroke: gray; fill: none;" marker-start="url(#ONLY_ONE_START)" marker-end="url(#ZERO_OR_MORE_END)" d="M143.00743865966797,132L143.00743865966797,140.33333333333334C143.00743865966797,148.66666666666666,143.00743865966797,165.33333333333334,143.00743865966797,182C143.00743865966797,198.66666666666666,143.00743865966797,215.33333333333334,143.00743865966797,223.66666666666666L143.00743865966797,232" class="er relationshipLine"/><g transform="translate(70.52513885498047,20 )" id="entity-categories-a09d50f2-ac74-5856-9390-f2cc9b07f93b"><rect height="112" width="144.964599609375" y="0" x="0" class="er entityBox"/><text style="dominant-baseline: middle; text-anchor: middle; font-size: 12px;" transform="translate(72.4822998046875,12)" y="0" x="0" id="text-entity-categories-a09d50f2-ac74-5856-9390-f2cc9b07f93b" class="er entityLabel">categories</text><rect height="22" width="58.98138427734375" y="24" x="0" class="er attributeBoxOdd"/><text style="dominant-baseline: middle; font-size: 10.2px;" transform="translate(5,35)" y="0" x="0" id="text-entity-categories-a09d50f2-ac74-5856-9390-f2cc9b07f93b-attr-1-type" class="er entityLabel">int</text><rect height="22" width="63.2955322265625" y="24" x="58.98138427734375" class="er attributeBoxOdd"/><text style="dominant-baseline: middle; font-size: 10.2px;" transform="translate(63.98138427734375,35)" y="0" x="0" id="text-entity-categories-a09d50f2-ac74-5856-9390-f2cc9b07f93b-attr-1-name" class="er entityLabel">id</text><rect height="22" width="22.68768310546875" y="24" x="122.27691650390625" class="er attributeBoxOdd"/><text style="dominant-baseline: middle; font-size: 10.2px;" transform="translate(127.27691650390625,35)" y="0" x="0" id="text-entity-categories-a09d50f2-ac74-5856-9390-f2cc9b07f93b-attr-1-key" class="er entityLabel">PK</text><rect height="22" width="58.98138427734375" y="46" x="0" class="er attributeBoxEven"/><text style="dominant-baseline: middle; font-size: 10.2px;" transform="translate(5,57)" y="0" x="0" id="text-entity-categories-a09d50f2-ac74-5856-9390-f2cc9b07f93b-attr-2-type" class="er entityLabel">string</text><rect height="22" width="63.2955322265625" y="46" x="58.98138427734375" class="er attributeBoxEven"/><text style="dominant-baseline: middle; font-size: 10.2px;" transform="translate(63.98138427734375,57)" y="0" x="0" id="text-entity-categories-a09d50f2-ac74-5856-9390-f2cc9b07f93b-attr-2-name" class="er entityLabel">name</text><rect height="22" width="22.68768310546875" y="46" x="122.27691650390625" class="er attributeBoxEven"/><text style="dominant-baseline: middle; font-size: 10.2px;" transform="translate(127.27691650390625,57)" y="0" x="0" id="text-entity-categories-a09d50f2-ac74-5856-9390-f2cc9b07f93b-attr-2-key" class="er entityLabel"/><rect height="22" width="58.98138427734375" y="68" x="0" class="er attributeBoxOdd"/><text style="dominant-baseline: middle; font-size: 10.2px;" transform="translate(5,79)" y="0" x="0" id="text-entity-categories-a09d50f2-ac74-5856-9390-f2cc9b07f93b-attr-3-type" class="er entityLabel">timestamp</text><rect height="22" width="63.2955322265625" y="68" x="58.98138427734375" class="er attributeBoxOdd"/><text style="dominant-baseline: middle; font-size: 10.2px;" transform="translate(63.98138427734375,79)" y="0" x="0" id="text-entity-categories-a09d50f2-ac74-5856-9390-f2cc9b07f93b-attr-3-name" class="er entityLabel">created_at</text><rect height="22" width="22.68768310546875" y="68" x="122.27691650390625" class="er attributeBoxOdd"/><text style="dominant-baseline: middle; font-size: 10.2px;" transform="translate(127.27691650390625,79)" y="0" x="0" id="text-entity-categories-a09d50f2-ac74-5856-9390-f2cc9b07f93b-attr-3-key" class="er entityLabel"/><rect height="22" width="58.98138427734375" y="90" x="0" class="er attributeBoxEven"/><text style="dominant-baseline: middle; font-size: 10.2px;" transform="translate(5,101)" y="0" x="0" id="text-entity-categories-a09d50f2-ac74-5856-9390-f2cc9b07f93b-attr-4-type" class="er entityLabel">timestamp</text><rect height="22" width="63.2955322265625" y="90" x="58.98138427734375" class="er attributeBoxEven"/><text style="dominant-baseline: middle; font-size: 10.2px;" transform="translate(63.98138427734375,101)" y="0" x="0" id="text-entity-categories-a09d50f2-ac74-5856-9390-f2cc9b07f93b-attr-4-name" class="er entityLabel">updated_at</text><rect height="22" width="22.68768310546875" y="90" x="122.27691650390625" class="er attributeBoxEven"/><text style="dominant-baseline: middle; font-size: 10.2px;" transform="translate(127.27691650390625,101)" y="0" x="0" id="text-entity-categories-a09d50f2-ac74-5856-9390-f2cc9b07f93b-attr-4-key" class="er entityLabel"/></g><g transform="translate(20,232 )" id="entity-contacts-322165ee-fad1-5595-b988-8534c76b3001"><rect height="288" width="246.01487731933594" y="0" x="0" class="er entityBox"/><text style="dominant-baseline: middle; text-anchor: middle; font-size: 12px;" transform="translate(123.00743865966797,12)" y="0" x="0" id="text-entity-contacts-322165ee-fad1-5595-b988-8534c76b3001" class="er entityLabel">contacts</text><rect height="22" width="69.05792236328125" y="24" x="0" class="er attributeBoxOdd"/><text style="dominant-baseline: middle; font-size: 10.2px;" transform="translate(5,35)" y="0" x="0" id="text-entity-contacts-322165ee-fad1-5595-b988-8534c76b3001-attr-1-type" class="er entityLabel">bigint</text><rect height="22" width="63.86222839355469" y="24" x="69.05792236328125" class="er attributeBoxOdd"/><text style="dominant-baseline: middle; font-size: 10.2px;" transform="translate(74.05792236328125,35)" y="0" x="0" id="text-entity-contacts-322165ee-fad1-5595-b988-8534c76b3001-attr-1-name" class="er entityLabel">id</text><rect height="22" width="22.68768310546875" y="24" x="132.92015075683594" class="er attributeBoxOdd"/><text style="dominant-baseline: middle; font-size: 10.2px;" transform="translate(137.92015075683594,35)" y="0" x="0" id="text-entity-contacts-322165ee-fad1-5595-b988-8534c76b3001-attr-1-key" class="er entityLabel">PK</text><rect height="22" width="90.40704345703125" y="24" x="155.6078338623047" class="er attributeBoxOdd"/><text style="dominant-baseline: middle; font-size: 10.2px;" transform="translate(160.6078338623047,35)" y="0" x="0" id="text-entity-contacts-322165ee-fad1-5595-b988-8534c76b3001-attr-1-comment" class="er entityLabel">BIGINT UNSIGNED</text><rect height="22" width="69.05792236328125" y="46" x="0" class="er attributeBoxEven"/><text style="dominant-baseline: middle; font-size: 10.2px;" transform="translate(5,57)" y="0" x="0" id="text-entity-contacts-322165ee-fad1-5595-b988-8534c76b3001-attr-2-type" class="er entityLabel">bigint</text><rect height="22" width="63.86222839355469" y="46" x="69.05792236328125" class="er attributeBoxEven"/><text style="dominant-baseline: middle; font-size: 10.2px;" transform="translate(74.05792236328125,57)" y="0" x="0" id="text-entity-contacts-322165ee-fad1-5595-b988-8534c76b3001-attr-2-name" class="er entityLabel">category_id</text><rect height="22" width="22.68768310546875" y="46" x="132.92015075683594" class="er attributeBoxEven"/><text style="dominant-baseline: middle; font-size: 10.2px;" transform="translate(137.92015075683594,57)" y="0" x="0" id="text-entity-contacts-322165ee-fad1-5595-b988-8534c76b3001-attr-2-key" class="er entityLabel">FK</text><rect height="22" width="90.40704345703125" y="46" x="155.6078338623047" class="er attributeBoxEven"/><text style="dominant-baseline: middle; font-size: 10.2px;" transform="translate(160.6078338623047,57)" y="0" x="0" id="text-entity-contacts-322165ee-fad1-5595-b988-8534c76b3001-attr-2-comment" class="er entityLabel">BIGINT UNSIGNED</text><rect height="22" width="69.05792236328125" y="68" x="0" class="er attributeBoxOdd"/><text style="dominant-baseline: middle; font-size: 10.2px;" transform="translate(5,79)" y="0" x="0" id="text-entity-contacts-322165ee-fad1-5595-b988-8534c76b3001-attr-3-type" class="er entityLabel">varchar(255)</text><rect height="22" width="63.86222839355469" y="68" x="69.05792236328125" class="er attributeBoxOdd"/><text style="dominant-baseline: middle; font-size: 10.2px;" transform="translate(74.05792236328125,79)" y="0" x="0" id="text-entity-contacts-322165ee-fad1-5595-b988-8534c76b3001-attr-3-name" class="er entityLabel">first_name</text><rect height="22" width="22.68768310546875" y="68" x="132.92015075683594" class="er attributeBoxOdd"/><text style="dominant-baseline: middle; font-size: 10.2px;" transform="translate(137.92015075683594,79)" y="0" x="0" id="text-entity-contacts-322165ee-fad1-5595-b988-8534c76b3001-attr-3-key" class="er entityLabel"/><rect height="22" width="90.40704345703125" y="68" x="155.6078338623047" class="er attributeBoxOdd"/><text style="dominant-baseline: middle; font-size: 10.2px;" transform="translate(160.6078338623047,79)" y="0" x="0" id="text-entity-contacts-322165ee-fad1-5595-b988-8534c76b3001-attr-3-comment" class="er entityLabel"/><rect height="22" width="69.05792236328125" y="90" x="0" class="er attributeBoxEven"/><text style="dominant-baseline: middle; font-size: 10.2px;" transform="translate(5,101)" y="0" x="0" id="text-entity-contacts-322165ee-fad1-5595-b988-8534c76b3001-attr-4-type" class="er entityLabel">varchar(255)</text><rect height="22" width="63.86222839355469" y="90" x="69.05792236328125" class="er attributeBoxEven"/><text style="dominant-baseline: middle; font-size: 10.2px;" transform="translate(74.05792236328125,101)" y="0" x="0" id="text-entity-contacts-322165ee-fad1-5595-b988-8534c76b3001-attr-4-name" class="er entityLabel">last_name</text><rect height="22" width="22.68768310546875" y="90" x="132.92015075683594" class="er attributeBoxEven"/><text style="dominant-baseline: middle; font-size: 10.2px;" transform="translate(137.92015075683594,101)" y="0" x="0" id="text-entity-contacts-322165ee-fad1-5595-b988-8534c76b3001-attr-4-key" class="er entityLabel"/><rect height="22" width="90.40704345703125" y="90" x="155.6078338623047" class="er attributeBoxEven"/><text style="dominant-baseline: middle; font-size: 10.2px;" transform="translate(160.6078338623047,101)" y="0" x="0" id="text-entity-contacts-322165ee-fad1-5595-b988-8534c76b3001-attr-4-comment" class="er entityLabel"/><rect height="22" width="69.05792236328125" y="112" x="0" class="er attributeBoxOdd"/><text style="dominant-baseline: middle; font-size: 10.2px;" transform="translate(5,123)" y="0" x="0" id="text-entity-contacts-322165ee-fad1-5595-b988-8534c76b3001-attr-5-type" class="er entityLabel">varchar(255)</text><rect height="22" width="63.86222839355469" y="112" x="69.05792236328125" class="er attributeBoxOdd"/><text style="dominant-baseline: middle; font-size: 10.2px;" transform="translate(74.05792236328125,123)" y="0" x="0" id="text-entity-contacts-322165ee-fad1-5595-b988-8534c76b3001-attr-5-name" class="er entityLabel">email</text><rect height="22" width="22.68768310546875" y="112" x="132.92015075683594" class="er attributeBoxOdd"/><text style="dominant-baseline: middle; font-size: 10.2px;" transform="translate(137.92015075683594,123)" y="0" x="0" id="text-entity-contacts-322165ee-fad1-5595-b988-8534c76b3001-attr-5-key" class="er entityLabel"/><rect height="22" width="90.40704345703125" y="112" x="155.6078338623047" class="er attributeBoxOdd"/><text style="dominant-baseline: middle; font-size: 10.2px;" transform="translate(160.6078338623047,123)" y="0" x="0" id="text-entity-contacts-322165ee-fad1-5595-b988-8534c76b3001-attr-5-comment" class="er entityLabel"/><rect height="22" width="69.05792236328125" y="134" x="0" class="er attributeBoxEven"/><text style="dominant-baseline: middle; font-size: 10.2px;" transform="translate(5,145)" y="0" x="0" id="text-entity-contacts-322165ee-fad1-5595-b988-8534c76b3001-attr-6-type" class="er entityLabel">varchar(255)</text><rect height="22" width="63.86222839355469" y="134" x="69.05792236328125" class="er attributeBoxEven"/><text style="dominant-baseline: middle; font-size: 10.2px;" transform="translate(74.05792236328125,145)" y="0" x="0" id="text-entity-contacts-322165ee-fad1-5595-b988-8534c76b3001-attr-6-name" class="er entityLabel">tel</text><rect height="22" width="22.68768310546875" y="134" x="132.92015075683594" class="er attributeBoxEven"/><text style="dominant-baseline: middle; font-size: 10.2px;" transform="translate(137.92015075683594,145)" y="0" x="0" id="text-entity-contacts-322165ee-fad1-5595-b988-8534c76b3001-attr-6-key" class="er entityLabel"/><rect height="22" width="90.40704345703125" y="134" x="155.6078338623047" class="er attributeBoxEven"/><text style="dominant-baseline: middle; font-size: 10.2px;" transform="translate(160.6078338623047,145)" y="0" x="0" id="text-entity-contacts-322165ee-fad1-5595-b988-8534c76b3001-attr-6-comment" class="er entityLabel"/><rect height="22" width="69.05792236328125" y="156" x="0" class="er attributeBoxOdd"/><text style="dominant-baseline: middle; font-size: 10.2px;" transform="translate(5,167)" y="0" x="0" id="text-entity-contacts-322165ee-fad1-5595-b988-8534c76b3001-attr-7-type" class="er entityLabel">varchar(255)</text><rect height="22" width="63.86222839355469" y="156" x="69.05792236328125" class="er attributeBoxOdd"/><text style="dominant-baseline: middle; font-size: 10.2px;" transform="translate(74.05792236328125,167)" y="0" x="0" id="text-entity-contacts-322165ee-fad1-5595-b988-8534c76b3001-attr-7-name" class="er entityLabel">gender</text><rect height="22" width="22.68768310546875" y="156" x="132.92015075683594" class="er attributeBoxOdd"/><text style="dominant-baseline: middle; font-size: 10.2px;" transform="translate(137.92015075683594,167)" y="0" x="0" id="text-entity-contacts-322165ee-fad1-5595-b988-8534c76b3001-attr-7-key" class="er entityLabel"/><rect height="22" width="90.40704345703125" y="156" x="155.6078338623047" class="er attributeBoxOdd"/><text style="dominant-baseline: middle; font-size: 10.2px;" transform="translate(160.6078338623047,167)" y="0" x="0" id="text-entity-contacts-322165ee-fad1-5595-b988-8534c76b3001-attr-7-comment" class="er entityLabel"/><rect height="22" width="69.05792236328125" y="178" x="0" class="er attributeBoxEven"/><text style="dominant-baseline: middle; font-size: 10.2px;" transform="translate(5,189)" y="0" x="0" id="text-entity-contacts-322165ee-fad1-5595-b988-8534c76b3001-attr-8-type" class="er entityLabel">varchar(255)</text><rect height="22" width="63.86222839355469" y="178" x="69.05792236328125" class="er attributeBoxEven"/><text style="dominant-baseline: middle; font-size: 10.2px;" transform="translate(74.05792236328125,189)" y="0" x="0" id="text-entity-contacts-322165ee-fad1-5595-b988-8534c76b3001-attr-8-name" class="er entityLabel">address</text><rect height="22" width="22.68768310546875" y="178" x="132.92015075683594" class="er attributeBoxEven"/><text style="dominant-baseline: middle; font-size: 10.2px;" transform="translate(137.92015075683594,189)" y="0" x="0" id="text-entity-contacts-322165ee-fad1-5595-b988-8534c76b3001-attr-8-key" class="er entityLabel"/><rect height="22" width="90.40704345703125" y="178" x="155.6078338623047" class="er attributeBoxEven"/><text style="dominant-baseline: middle; font-size: 10.2px;" transform="translate(160.6078338623047,189)" y="0" x="0" id="text-entity-contacts-322165ee-fad1-5595-b988-8534c76b3001-attr-8-comment" class="er entityLabel"/><rect height="22" width="69.05792236328125" y="200" x="0" class="er attributeBoxOdd"/><text style="dominant-baseline: middle; font-size: 10.2px;" transform="translate(5,211)" y="0" x="0" id="text-entity-contacts-322165ee-fad1-5595-b988-8534c76b3001-attr-9-type" class="er entityLabel">varchar(255)</text><rect height="22" width="63.86222839355469" y="200" x="69.05792236328125" class="er attributeBoxOdd"/><text style="dominant-baseline: middle; font-size: 10.2px;" transform="translate(74.05792236328125,211)" y="0" x="0" id="text-entity-contacts-322165ee-fad1-5595-b988-8534c76b3001-attr-9-name" class="er entityLabel">building</text><rect height="22" width="22.68768310546875" y="200" x="132.92015075683594" class="er attributeBoxOdd"/><text style="dominant-baseline: middle; font-size: 10.2px;" transform="translate(137.92015075683594,211)" y="0" x="0" id="text-entity-contacts-322165ee-fad1-5595-b988-8534c76b3001-attr-9-key" class="er entityLabel"/><rect height="22" width="90.40704345703125" y="200" x="155.6078338623047" class="er attributeBoxOdd"/><text style="dominant-baseline: middle; font-size: 10.2px;" transform="translate(160.6078338623047,211)" y="0" x="0" id="text-entity-contacts-322165ee-fad1-5595-b988-8534c76b3001-attr-9-comment" class="er entityLabel"/><rect height="22" width="69.05792236328125" y="222" x="0" class="er attributeBoxEven"/><text style="dominant-baseline: middle; font-size: 10.2px;" transform="translate(5,233)" y="0" x="0" id="text-entity-contacts-322165ee-fad1-5595-b988-8534c76b3001-attr-10-type" class="er entityLabel">text</text><rect height="22" width="63.86222839355469" y="222" x="69.05792236328125" class="er attributeBoxEven"/><text style="dominant-baseline: middle; font-size: 10.2px;" transform="translate(74.05792236328125,233)" y="0" x="0" id="text-entity-contacts-322165ee-fad1-5595-b988-8534c76b3001-attr-10-name" class="er entityLabel">detail</text><rect height="22" width="22.68768310546875" y="222" x="132.92015075683594" class="er attributeBoxEven"/><text style="dominant-baseline: middle; font-size: 10.2px;" transform="translate(137.92015075683594,233)" y="0" x="0" id="text-entity-contacts-322165ee-fad1-5595-b988-8534c76b3001-attr-10-key" class="er entityLabel"/><rect height="22" width="90.40704345703125" y="222" x="155.6078338623047" class="er attributeBoxEven"/><text style="dominant-baseline: middle; font-size: 10.2px;" transform="translate(160.6078338623047,233)" y="0" x="0" id="text-entity-contacts-322165ee-fad1-5595-b988-8534c76b3001-attr-10-comment" class="er entityLabel"/><rect height="22" width="69.05792236328125" y="244" x="0" class="er attributeBoxOdd"/><text style="dominant-baseline: middle; font-size: 10.2px;" transform="translate(5,255)" y="0" x="0" id="text-entity-contacts-322165ee-fad1-5595-b988-8534c76b3001-attr-11-type" class="er entityLabel">timestamp</text><rect height="22" width="63.86222839355469" y="244" x="69.05792236328125" class="er attributeBoxOdd"/><text style="dominant-baseline: middle; font-size: 10.2px;" transform="translate(74.05792236328125,255)" y="0" x="0" id="text-entity-contacts-322165ee-fad1-5595-b988-8534c76b3001-attr-11-name" class="er entityLabel">created_at</text><rect height="22" width="22.68768310546875" y="244" x="132.92015075683594" class="er attributeBoxOdd"/><text style="dominant-baseline: middle; font-size: 10.2px;" transform="translate(137.92015075683594,255)" y="0" x="0" id="text-entity-contacts-322165ee-fad1-5595-b988-8534c76b3001-attr-11-key" class="er entityLabel"/><rect height="22" width="90.40704345703125" y="244" x="155.6078338623047" class="er attributeBoxOdd"/><text style="dominant-baseline: middle; font-size: 10.2px;" transform="translate(160.6078338623047,255)" y="0" x="0" id="text-entity-contacts-322165ee-fad1-5595-b988-8534c76b3001-attr-11-comment" class="er entityLabel"/><rect height="22" width="69.05792236328125" y="266" x="0" class="er attributeBoxEven"/><text style="dominant-baseline: middle; font-size: 10.2px;" transform="translate(5,277)" y="0" x="0" id="text-entity-contacts-322165ee-fad1-5595-b988-8534c76b3001-attr-12-type" class="er entityLabel">timestamp</text><rect height="22" width="63.86222839355469" y="266" x="69.05792236328125" class="er attributeBoxEven"/><text style="dominant-baseline: middle; font-size: 10.2px;" transform="translate(74.05792236328125,277)" y="0" x="0" id="text-entity-contacts-322165ee-fad1-5595-b988-8534c76b3001-attr-12-name" class="er entityLabel">updated_at</text><rect height="22" width="22.68768310546875" y="266" x="132.92015075683594" class="er attributeBoxEven"/><text style="dominant-baseline: middle; font-size: 10.2px;" transform="translate(137.92015075683594,277)" y="0" x="0" id="text-entity-contacts-322165ee-fad1-5595-b988-8534c76b3001-attr-12-key" class="er entityLabel"/><rect height="22" width="90.40704345703125" y="266" x="155.6078338623047" class="er attributeBoxEven"/><text style="dominant-baseline: middle; font-size: 10.2px;" transform="translate(160.6078338623047,277)" y="0" x="0" id="text-entity-contacts-322165ee-fad1-5595-b988-8534c76b3001-attr-12-comment" class="er entityLabel"/></g><g transform="translate(315.48973846435547,20 )" id="entity-users-33ae1e26-be31-5c1d-bf65-e859e9d0308e"><rect height="112" width="245.44818115234375" y="0" x="0" class="er entityBox"/><text style="dominant-baseline: middle; text-anchor: middle; font-size: 12px;" transform="translate(122.72409057617188,12)" y="0" x="0" id="text-entity-users-33ae1e26-be31-5c1d-bf65-e859e9d0308e" class="er entityLabel">users</text><rect height="22" width="69.05792236328125" y="24" x="0" class="er attributeBoxOdd"/><text style="dominant-baseline: middle; font-size: 10.2px;" transform="translate(5,35)" y="0" x="0" id="text-entity-users-33ae1e26-be31-5c1d-bf65-e859e9d0308e-attr-1-type" class="er entityLabel">bigint</text><rect height="22" width="63.2955322265625" y="24" x="69.05792236328125" class="er attributeBoxOdd"/><text style="dominant-baseline: middle; font-size: 10.2px;" transform="translate(74.05792236328125,35)" y="0" x="0" id="text-entity-users-33ae1e26-be31-5c1d-bf65-e859e9d0308e-attr-1-name" class="er entityLabel">id</text><rect height="22" width="22.68768310546875" y="24" x="132.35345458984375" class="er attributeBoxOdd"/><text style="dominant-baseline: middle; font-size: 10.2px;" transform="translate(137.35345458984375,35)" y="0" x="0" id="text-entity-users-33ae1e26-be31-5c1d-bf65-e859e9d0308e-attr-1-key" class="er entityLabel">PK</text><rect height="22" width="90.40704345703125" y="24" x="155.0411376953125" class="er attributeBoxOdd"/><text style="dominant-baseline: middle; font-size: 10.2px;" transform="translate(160.0411376953125,35)" y="0" x="0" id="text-entity-users-33ae1e26-be31-5c1d-bf65-e859e9d0308e-attr-1-comment" class="er entityLabel">BIGINT UNSIGNED</text><rect height="22" width="69.05792236328125" y="46" x="0" class="er attributeBoxEven"/><text style="dominant-baseline: middle; font-size: 10.2px;" transform="translate(5,57)" y="0" x="0" id="text-entity-users-33ae1e26-be31-5c1d-bf65-e859e9d0308e-attr-2-type" class="er entityLabel">varchar(255)</text><rect height="22" width="63.2955322265625" y="46" x="69.05792236328125" class="er attributeBoxEven"/><text style="dominant-baseline: middle; font-size: 10.2px;" transform="translate(74.05792236328125,57)" y="0" x="0" id="text-entity-users-33ae1e26-be31-5c1d-bf65-e859e9d0308e-attr-2-name" class="er entityLabel">content</text><rect height="22" width="22.68768310546875" y="46" x="132.35345458984375" class="er attributeBoxEven"/><text style="dominant-baseline: middle; font-size: 10.2px;" transform="translate(137.35345458984375,57)" y="0" x="0" id="text-entity-users-33ae1e26-be31-5c1d-bf65-e859e9d0308e-attr-2-key" class="er entityLabel"/><rect height="22" width="90.40704345703125" y="46" x="155.0411376953125" class="er attributeBoxEven"/><text style="dominant-baseline: middle; font-size: 10.2px;" transform="translate(160.0411376953125,57)" y="0" x="0" id="text-entity-users-33ae1e26-be31-5c1d-bf65-e859e9d0308e-attr-2-comment" class="er entityLabel"/><rect height="22" width="69.05792236328125" y="68" x="0" class="er attributeBoxOdd"/><text style="dominant-baseline: middle; font-size: 10.2px;" transform="translate(5,79)" y="0" x="0" id="text-entity-users-33ae1e26-be31-5c1d-bf65-e859e9d0308e-attr-3-type" class="er entityLabel">timestamp</text><rect height="22" width="63.2955322265625" y="68" x="69.05792236328125" class="er attributeBoxOdd"/><text style="dominant-baseline: middle; font-size: 10.2px;" transform="translate(74.05792236328125,79)" y="0" x="0" id="text-entity-users-33ae1e26-be31-5c1d-bf65-e859e9d0308e-attr-3-name" class="er entityLabel">created_at</text><rect height="22" width="22.68768310546875" y="68" x="132.35345458984375" class="er attributeBoxOdd"/><text style="dominant-baseline: middle; font-size: 10.2px;" transform="translate(137.35345458984375,79)" y="0" x="0" id="text-entity-users-33ae1e26-be31-5c1d-bf65-e859e9d0308e-attr-3-key" class="er entityLabel"/><rect height="22" width="90.40704345703125" y="68" x="155.0411376953125" class="er attributeBoxOdd"/><text style="dominant-baseline: middle; font-size: 10.2px;" transform="translate(160.0411376953125,79)" y="0" x="0" id="text-entity-users-33ae1e26-be31-5c1d-bf65-e859e9d0308e-attr-3-comment" class="er entityLabel"/><rect height="22" width="69.05792236328125" y="90" x="0" class="er attributeBoxEven"/><text style="dominant-baseline: middle; font-size: 10.2px;" transform="translate(5,101)" y="0" x="0" id="text-entity-users-33ae1e26-be31-5c1d-bf65-e859e9d0308e-attr-4-type" class="er entityLabel">timestamp</text><rect height="22" width="63.2955322265625" y="90" x="69.05792236328125" class="er attributeBoxEven"/><text style="dominant-baseline: middle; font-size: 10.2px;" transform="translate(74.05792236328125,101)" y="0" x="0" id="text-entity-users-33ae1e26-be31-5c1d-bf65-e859e9d0308e-attr-4-name" class="er entityLabel">updated_at</text><rect height="22" width="22.68768310546875" y="90" x="132.35345458984375" class="er attributeBoxEven"/><text style="dominant-baseline: middle; font-size: 10.2px;" transform="translate(137.35345458984375,101)" y="0" x="0" id="text-entity-users-33ae1e26-be31-5c1d-bf65-e859e9d0308e-attr-4-key" class="er entityLabel"/><rect height="22" width="90.40704345703125" y="90" x="155.0411376953125" class="er attributeBoxEven"/><text style="dominant-baseline: middle; font-size: 10.2px;" transform="translate(160.0411376953125,101)" y="0" x="0" id="text-entity-users-33ae1e26-be31-5c1d-bf65-e859e9d0308e-attr-4-comment" class="er entityLabel"/></g><rect height="0" width="0" y="182" x="143.0074462890625" class="er relationshipLabelBox"/><text style="text-anchor: middle; dominant-baseline: middle; font-size: 12px;" y="182" x="143.0074462890625" id="rel4" class="er relationshipLabel"/></svg>